<svg xmlns="http://www.w3.org/2000/svg" viewBox="0 0 640 360"><defs><linearGradient id="a" x1="0" y1="0" x2="1" y2="1"><stop stop-color="#eff8fc"/><stop offset="1" stop-color="#c9e5f1"/></linearGradient></defs><rect width="640" height="360" rx="34" fill="#f8fbfd"/><ellipse cx="320" cy="300" rx="180" ry="24" fill="#b7d3e1" opacity=".35"/><g transform="translate(110 70)"><rect x="0" y="132" width="420" height="118" rx="26" fill="url(#a)"/><rect x="34" y="154" width="352" height="54" rx="18" fill="#ffffff"/><rect x="52" y="170" width="86" height="18" rx="9" fill="#173a55"/><rect x="154" y="170" width="70" height="18" rx="9" fill="#8fc7df"/><rect x="240" y="170" width="70" height="18" rx="9" fill="#8fc7df"/><rect x="326" y="170" width="42" height="18" rx="9" fill="#8fc7df"/><path d="M84 38h72l-10 58c-3 18-17 30-36 30s-33-12-36-30z" fill="#ffffff" stroke="#173a55" stroke-width="12"/><path d="M102 126v34m-22 0h44" stroke="#173a55" stroke-width="12" stroke-linecap="round"/><path d="M236 30h72l-8 52c-3 18-18 30-36 30s-33-12-36-30z" fill="#8fc7df" stroke="#173a55" stroke-width="12"/><path d="M254 112v48m-22 0h44" stroke="#173a55" stroke-width="12" stroke-linecap="round"/><rect x="346" y="18" width="42" height="112" rx="18" fill="#173a55"/><rect x="354" y="36" width="26" height="58" rx="10" fill="#8fc7df"/></g></svg>