<svg xmlns="http://www.w3.org/2000/svg" viewBox="0 0 640 360"><defs><linearGradient id="a" x1="0" y1="0" x2="1" y2="1"><stop stop-color="#eef8fc"/><stop offset="1" stop-color="#c7e3ef"/></linearGradient></defs><rect width="640" height="360" rx="34" fill="#f8fbfd"/><ellipse cx="320" cy="296" rx="164" ry="24" fill="#b7d3e1" opacity=".34"/><g transform="translate(128 54)"><path d="M58 36h126l-26 72c-8 23-28 38-53 38s-45-15-53-38z" fill="url(#a)" stroke="#173a55" stroke-width="12"/><path d="M121 146v66m-36 0h72" stroke="#173a55" stroke-width="12" stroke-linecap="round"/><circle cx="116" cy="86" r="18" fill="#8fc7df"/><path d="M96 80c18-22 38-34 64-40" fill="none" stroke="#8fc7df" stroke-width="10" stroke-linecap="round"/><path d="M246 30h116l-18 86c-5 24-25 42-50 42s-45-18-50-42z" fill="#ffffff" stroke="#173a55" stroke-width="12"/><path d="M302 158v54m-34 0h68" stroke="#173a55" stroke-width="12" stroke-linecap="round"/><circle cx="286" cy="86" r="16" fill="#8fc7df"/><circle cx="322" cy="76" r="12" fill="#cdeeff"/><path d="M332 32c18 12 28 28 30 48" fill="none" stroke="#8fc7df" stroke-width="10" stroke-linecap="round"/></g></svg>